<?xml version="1.0" encoding="utf-8"?>
<!DOCTYPE svg PUBLIC "-//W3C//DTD SVG 1.1//EN" 
"http://www.w3.org/Graphics/SVG/1.1/DTD/svg11.dtd">
<svg version="1.1" id="Layer_1" xmlns="http://www.w3.org/2000/svg" 
xmlns:xlink="http://www.w3.org/1999/xlink" x="0px" y="0px"
     viewBox="0 0 24 24" enable-background="new 0 0 10 10" 
     width="40" height="40"
     xml:space="preserve">
<g><path d="M12 2c5.523 0 10 4.476 10 10 0 5.523-4.477 10-10 10-5.522 0-10-4.477-10-10C2 6.478 6.478 2 12 2z" fill="#2867B2"></path><path d="M16.926 6H6.871C6.391 6 6 6.38 6 6.85v10.098c0 .47.39.852.871.852h10.056a.864.864 0 00.873-.852V6.85a.863.863 0 00-.874-.85z" fill="#fff"></path><path d="M7.75 10.424h1.753v5.63H7.75v-5.63zm.875-2.803a1.015 1.015 0 11-.002 2.03 1.015 1.015 0 01.002-2.03m1.973 2.803h1.678v.77h.024c.233-.443.804-.91 1.66-.91 1.771 0 2.098 1.166 2.098 2.682v3.089H14.31v-2.74c0-.652-.011-1.493-.909-1.493-.91 0-1.05.712-1.05 1.446v2.785H10.6v-5.63h-.002z" fill="#2867B2"></path></g>
</svg>